<?xml version="1.0" standalone="no"?><!DOCTYPE svg PUBLIC "-//W3C//DTD SVG 1.1//EN" "http://www.w3.org/Graphics/SVG/1.1/DTD/svg11.dtd"><svg t="1567141835211" class="icon" viewBox="0 0 1024 1024" version="1.1" xmlns="http://www.w3.org/2000/svg" p-id="1784" width="32" height="32" xmlns:xlink="http://www.w3.org/1999/xlink"><defs><style type="text/css"></style></defs><path d="M511.8 913.6c-54.2 0-106.9-10.6-156.4-31.6-47.9-20.2-90.8-49.2-127.7-86.1-36.9-36.9-65.9-79.9-86.1-127.7-21-49.6-31.6-102.2-31.6-156.4s10.6-106.9 31.6-156.4c20.2-47.9 49.2-90.8 86.1-127.7s79.9-65.9 127.7-86.1c49.6-21 102.2-31.6 156.4-31.6s106.9 10.6 156.4 31.6c47.9 20.2 90.8 49.2 127.7 86.1 36.9 36.9 65.9 79.9 86.1 127.7 21 49.6 31.6 102.2 31.6 156.4S903 618.7 882.1 668.2c-20.2 47.9-49.2 90.8-86.1 127.7-36.9 36.9-79.9 65.9-127.7 86.1-49.6 21-102.2 31.6-156.5 31.6z m0-767.6C310.1 146 146 310.1 146 511.8s164.1 365.8 365.8 365.8 365.8-164.1 365.8-365.8S713.5 146 511.8 146z" p-id="1785" fill="#cdcdcd"></path><path d="M734.6 530H289.4c-9.9 0-18-8.1-18-18s8.1-18 18-18h445.2c9.9 0 18 8.1 18 18s-8.1 18-18 18z" p-id="1786" fill="#cdcdcd"></path></svg>